<?xml version="1.0" encoding="utf-8"?>
<!-- Generator: Adobe Illustrator 25.4.1, SVG Export Plug-In . SVG Version: 6.00 Build 0)  -->
<svg version="1.1" id="Layer_1" xmlns="http://www.w3.org/2000/svg" xmlns:xlink="http://www.w3.org/1999/xlink" x="0px" y="0px"
	 viewBox="0 0 100 84.2" style="enable-background:new 0 0 100 84.2;" xml:space="preserve">
<style type="text/css">
	.st0{fill:#FFFFFF;}
	.st1{fill:#E5FFEC;}
	.st2{fill:#CCCCCC;}
	.st3{fill:none;stroke:#3A3144;stroke-width:1.4287;stroke-miterlimit:10;}
	.st4{fill:#3A3144;stroke:#3A3144;stroke-width:1.4287;stroke-miterlimit:10;}
	.st5{fill:#F99192;}
	.st6{fill:#359C47;}
	.st7{fill:#71D2C1;}
	.st8{fill:#A0F2A0;}
	.st9{fill:#8FD98F;}
	.st10{fill:none;stroke:#2E60B8;stroke-width:0.5;stroke-miterlimit:10;}
	.st11{fill:none;stroke:#E7A54F;stroke-width:0.5715;stroke-miterlimit:10;}
	.st12{fill:#3A3144;}
	.st13{fill:#4F8AE0;}
	.st14{fill:#E7A54F;}
	.st15{fill:#D18C3D;}
	.st16{fill:none;stroke:#3A3144;stroke-width:5.7146;stroke-linejoin:round;}
	.st17{fill:none;stroke:#385A7D;stroke-width:5.7146;stroke-miterlimit:10;}
	.st18{fill:#385A7D;}
	.st19{fill:none;stroke:#71D2C1;stroke-width:2.2858;stroke-miterlimit:10;}
	.st20{fill:#2E60B8;}
	.st21{fill:none;stroke:#2E60B8;stroke-width:2.8573;stroke-miterlimit:10;}
	.st22{font-family:'MyriadPro-Bold';}
	.st23{font-size:4.5717px;}
</style>
<path class="st0" d="M46.6,39.7H6.2c-1.2,0-2.1-1-2.1-2.1V12.4c0-1.2,0.9-2.1,2.1-2.1h40.4c1.2,0,2.1,0.9,2.1,2.1v25.2
	C48.7,38.8,47.8,39.7,46.6,39.7z"/>
<path class="st0" d="M94.5,39.7H54.1c-1.2,0-2.1-1-2.1-2.1V12.4c0-1.2,1-2.1,2.1-2.1h40.4c1.2,0,2.1,0.9,2.1,2.1v25.2
	C96.7,38.8,95.7,39.7,94.5,39.7z"/>
<path class="st0" d="M46.6,72.7H6.2c-1.2,0-2.1-0.9-2.1-2.1V45.4c0-1.2,0.9-2.1,2.1-2.1h40.4c1.2,0,2.1,1,2.1,2.1v25.2
	C48.7,71.8,47.8,72.7,46.6,72.7z"/>
<path class="st0" d="M94.5,72.7H54.1c-1.2,0-2.1-0.9-2.1-2.1V45.4c0-1.2,1-2.1,2.1-2.1h40.4c1.2,0,2.1,1,2.1,2.1v25.2
	C96.7,71.8,95.7,72.7,94.5,72.7z"/>
<path class="st0" d="M92.3,80.5H8.5c-2.4,0-4.4-2.5-4.4-5.5V9.2c0-3.1,2-5.5,4.4-5.5h83.8c2.4,0,4.4,2.5,4.4,5.5V75
	C96.7,78.1,94.7,80.5,92.3,80.5z"/>
<g>
	<path class="st1" d="M28.4,13h18.3c2.9,0,5.3,2.4,5.3,5.3v45.8c0,2.9-2.4,5.3-5.3,5.3H28.4c-2.9,0-5.3-2.4-5.3-5.3V18.3
		C23.1,15.4,25.5,13,28.4,13z"/>
	<path class="st2" d="M48.7,13.3c-0.6-0.2-1.3-0.3-1.9-0.3H28.4c-0.6,0-1.3,0.1-1.9,0.3c-2.1,0.8-3.4,2.8-3.4,5v45.8
		c0,2.3,1.5,4.4,3.7,5.1c-1.8-0.7-3-2.4-3-4.3V19.1c0-2.6,2.1-4.6,4.6-4.6l0,0h2.7c0.4,0,0.7,0.3,0.8,0.6l0,0c0.2,0.6,0.7,1,1.3,1
		h9.1c0.6,0,1.2-0.4,1.3-1l0,0c0.1-0.4,0.4-0.6,0.8-0.6h2.3c2.6,0,4.6,2.1,4.6,4.6l0,0v45.8c0,1.9-1.2,3.6-3,4.3
		c2.2-0.7,3.7-2.8,3.7-5.1V18.3C52.1,16.1,50.7,14.1,48.7,13.3z"/>
	<path class="st3" d="M28.4,13h18.3c2.9,0,5.3,2.4,5.3,5.3v45.8c0,2.9-2.4,5.3-5.3,5.3H28.4c-2.9,0-5.3-2.4-5.3-5.3V18.3
		C23.1,15.4,25.5,13,28.4,13z"/>
	<path class="st4" d="M42.3,14.6h-9.1c-0.3,0-0.5-0.2-0.6-0.5L32.3,13h10.9l-0.3,1.1C42.8,14.4,42.6,14.6,42.3,14.6z"/>
	<path class="st4" d="M22.8,24.1h0.3l0,0v5.8l0,0h-0.3c-0.1,0-0.1-0.1-0.1-0.1v-5.6C22.7,24.1,22.7,24.1,22.8,24.1z"/>
	<path class="st4" d="M22.8,31.9h0.3l0,0v5.9l0,0h-0.3c-0.1,0-0.1-0.1-0.1-0.1v-5.6C22.7,32,22.7,31.9,22.8,31.9z"/>
	<path class="st4" d="M52.5,31.9h-0.3l0,0V26l0,0h0.3c0.1,0,0.1,0,0.1,0.1l0,0v5.6C52.7,31.9,52.6,31.9,52.5,31.9L52.5,31.9
		L52.5,31.9z"/>
	<rect x="28.1" y="14.8" class="st5" width="0.3" height="0.3"/>
	<rect x="28.8" y="14.8" class="st5" width="0.3" height="0.3"/>
	<rect x="29.5" y="14.8" class="st5" width="0.3" height="0.3"/>
	<polygon class="st5" points="45.4,15.1 47.3,15.1 47.3,14.7 	"/>
	<path class="st6" d="M43.9,31.5H28.6c-0.5,0-0.9,0.4-0.9,0.9v3c0,1.1,0.8,2.2,2,2.3c0.9,0.1,1.8-0.4,2.2-1.2c0.4,0.8,1.1,1.2,2,1.2
		l0,0c0.8,0,1.6-0.5,2-1.2c0.5,1.1,1.8,1.5,2.9,1c0.4-0.2,0.8-0.6,1-1c0.4,0.8,1.1,1.2,2,1.2l0,0c0.8,0,1.6-0.5,2-1.2
		c0.4,0.8,1.3,1.3,2.2,1.2c1.1-0.1,2-1.1,2-2.3v-3c0-0.5-0.4-0.9-0.9-0.9H43.9z"/>
	<path class="st7" d="M45.6,37.7c-0.8,0-1.6-0.5-2-1.2c-0.4,0.8-1.1,1.2-2,1.2l0,0c-0.8,0-1.6-0.5-2-1.2c-0.5,1.1-1.8,1.5-2.9,1
		c-0.4-0.2-0.8-0.6-1-1c-0.4,0.8-1.1,1.2-2,1.2l0,0c-0.8,0-1.6-0.5-2-1.2c-0.5,1.1-1.8,1.5-2.9,1c-0.2-0.1-0.4-0.2-0.5-0.4v10H47
		v-10C46.7,37.5,46.1,37.7,45.6,37.7z"/>
	<path class="st7" d="M43.6,36.5c-0.4,0.8-1.1,1.2-2,1.2l0,0c-0.8,0-1.6-0.5-2-1.2c-0.5,1.1-1.8,1.5-2.9,1c-0.4-0.2-0.8-0.6-1-1
		c-0.4,0.8-1.1,1.2-2,1.2l0,0c-0.8,0-1.6-0.5-2-1.2c-0.2,0.5-0.6,0.8-1.1,1v9.7h16.3v-10C46,38,44.6,38,43.8,37.1
		C43.8,36.9,43.7,36.7,43.6,36.5L43.6,36.5z"/>
	<path class="st8" d="M45.6,37.7c-0.8,0-1.6-0.5-2-1.2c-0.4,0.8-1.1,1.2-2,1.2l0,0c-0.8,0-1.6-0.5-2-1.2c-0.5,1.1-1.8,1.5-2.9,1
		c-0.4-0.2-0.8-0.6-1-1c-0.4,0.8-1.1,1.2-2,1.2l0,0c-0.8,0-1.6-0.5-2-1.2c-0.5,1.1-1.8,1.5-2.9,1c-0.2-0.1-0.4-0.2-0.5-0.4v10H47
		v-10C46.7,37.5,46.1,37.7,45.6,37.7z"/>
	<path class="st9" d="M36.1,41.3h3.2c1.1,0,2,0.9,2,2l0,0v4l0,0h-7.1l0,0v-4C34.2,42.2,35,41.3,36.1,41.3z"/>
	<rect x="37.6" y="39.8" class="st6" width="0.3" height="7.8"/>
	<path class="st9" d="M35.8,31.5h-3.9v5c0.4,0.8,1.1,1.2,2,1.2l0,0c0.8,0,1.6-0.5,2-1.2l0,0L35.8,31.5z"/>
	<path class="st9" d="M43.6,31.5h-3.9v5c0.4,0.8,1.1,1.2,2,1.2l0,0c0.8,0,1.6-0.5,2-1.2l0,0L43.6,31.5z"/>
	<path class="st6" d="M27.8,47.2h19.8c0.1,0,0.2,0.1,0.2,0.2v0.5c0,0.1-0.1,0.2-0.2,0.2H27.8c-0.1,0-0.2-0.1-0.2-0.2v-0.5
		C27.7,47.3,27.7,47.2,27.8,47.2z"/>
	<path class="st8" d="M26.3,27.1h5.9c0.1,0,0.3,0.1,0.3,0.3l0,0c0,0.1-0.1,0.3-0.3,0.3h-5.9c-0.1,0-0.3-0.1-0.3-0.3l0,0
		C26,27.2,26.1,27.1,26.3,27.1z"/>
	<path class="st8" d="M26.3,27.4c0-0.9,0.3-1.4,0.8-1.4s1.1,0.5,1.1,1.4"/>
	<path class="st8" d="M27.2,27.4c0-1.6,0.5-2.5,1.5-2.5s2.1,0.9,2.1,2.5"/>
	<circle class="st8" cx="37.6" cy="61.7" r="3.7"/>
	<path class="st8" d="M29.3,27.3c0-1,0.3-1.5,0.9-1.5s1.3,0.5,1.3,1.5"/>
	<path class="st8" d="M42.4,24.4h6c0.2,0,0.3,0.1,0.3,0.3l0,0c0,0.2-0.1,0.3-0.3,0.3h-6c-0.2,0-0.3-0.1-0.3-0.3l0,0
		C42.1,24.6,42.2,24.4,42.4,24.4z"/>
	<path class="st8" d="M42.4,24.7c0-0.9,0.3-1.4,0.8-1.4s1.1,0.5,1.2,1.4"/>
	<path class="st8" d="M43.4,24.7c0-1.6,0.5-2.5,1.5-2.5s2.1,0.9,2.1,2.5"/>
	<path class="st8" d="M45.5,24.7c0-1,0.3-1.5,0.9-1.5c0.6,0,1.3,0.5,1.3,1.5"/>
	<circle class="st8" cx="37.7" cy="22.2" r="3"/>
	<circle class="st6" cx="31.6" cy="42.2" r="1.5"/>
	<circle class="st6" cx="43.9" cy="42.2" r="1.5"/>
	<circle class="st6" cx="37.6" cy="61.7" r="3.2"/>
	<rect x="32.8" y="51.7" class="st10" width="9.8" height="0.5"/>
	<rect x="34.7" y="53.8" class="st10" width="6" height="0.5"/>
	<path class="st11" d="M67.2,25.7c2.5-0.8,6.9,9.1,6.9,9.1"/>
	<path class="st12" d="M61.9,22.5c-0.1,0.1-0.2,0.2-0.3,0.3c-0.1,0.3,0,0.5,0.3,0.6c0.1,0,0.1,0,0.2,0c0.3,0,0.5-0.1,0.7-0.3
		l-0.1-1.2"/>
	<path class="st7" d="M54.9,27.8L53,29.1c0,0-1.5-2.1-0.4-2.8C53.7,25.6,54.9,27.8,54.9,27.8z"/>
	<path class="st7" d="M51.2,26.7c0.4,0.7,0.9,1.2,1.5,1.8c0.2,0.2,0.5-0.1,0.3-0.3c-0.5-0.5-1-1.1-1.4-1.7
		C51.4,26.3,51,26.5,51.2,26.7L51.2,26.7z"/>
	<path class="st7" d="M51.4,25.9c0.3,0.6,0.7,1.2,1.1,1.8c0.2,0.2,0.5-0.1,0.3-0.3c-0.4-0.5-0.8-1.1-1-1.7
		C51.7,25.4,51.3,25.6,51.4,25.9L51.4,25.9z"/>
	<path class="st7" d="M51.8,25.2c0.2,0.6,0.5,1.3,0.8,1.8c0.2,0.2,0.5,0,0.4-0.2c-0.4-0.5-0.6-1.1-0.8-1.7
		C52.1,24.8,51.7,24.9,51.8,25.2L51.8,25.2z"/>
	<path class="st7" d="M52.5,25c0.2,0.6,0.3,1.3,0.7,1.8c0.2,0.2,0.5,0,0.4-0.2c-0.3-0.5-0.5-1.1-0.7-1.7
		C52.8,24.6,52.4,24.7,52.5,25L52.5,25z"/>
	<path class="st13" d="M53.6,27.6h-2c-0.2,0-0.3-0.1-0.4-0.3l-0.4-4.2c0-0.2,0.1-0.4,0.3-0.4l0,0h2c0.2,0,0.3,0.1,0.4,0.3l0.4,4.2
		C54,27.4,53.8,27.6,53.6,27.6L53.6,27.6z"/>
	<path class="st7" d="M53.8,26.4c0,0-1,0.4-0.7,1.3s1.2,0.1,1.2,0.1"/>
	<path class="st7" d="M53.7,26.1c0.2,0.5,0.3,1,0.2,1.6c0,0.2,0.1,0.3,0.3,0.3s0.3-0.1,0.3-0.3c0.1-0.6-0.1-1.2-0.3-1.7
		C54.1,25.6,53.6,25.7,53.7,26.1z"/>
	<path class="st14" d="M61.4,62.8l-3.7,0.3c0,1.5,1.3,3.5-1.3,4.5c-2.1,0.8-2.3,1.9-2.1,2.3c0,0.1,0.1,0.1,0.3,0.1l6.8-0.5
		c0.4,0,0.7-0.4,0.6-0.7l0,0C61.8,66.8,61.4,62.8,61.4,62.8z"/>
	<path class="st15" d="M57.9,64.7c0.1,0.6,0.1,1.3-0.2,1.8l4-0.3c-0.2-1.8-0.4-3.5-0.4-3.5L57.6,63C57.8,63.6,58,64.2,57.9,64.7z"/>
	<path class="st12" d="M56.6,67.3l0.3,0.6H57L56.6,67.3C56.7,67.2,56.6,67.2,56.6,67.3z"/>
	<path class="st12" d="M57.2,67c0.1,0.2,0.3,0.4,0.4,0.7h0.1C57.5,67.4,57.4,67.1,57.2,67C57.2,66.9,57.2,66.9,57.2,67L57.2,67z"/>
	<path class="st12" d="M57.7,66.5c0.1,0.2,0.3,0.3,0.4,0.5h0.1C58,66.8,57.9,66.6,57.7,66.5C57.7,66.4,57.7,66.5,57.7,66.5
		L57.7,66.5z"/>
	<path class="st15" d="M54.3,69.9c0,0.1,0.1,0.1,0.3,0.1l6.8-0.5c0.4,0,0.7-0.4,0.6-0.7l0,0l0,0l-7.8,0.5
		C54.2,69.5,54.2,69.7,54.3,69.9z"/>
	<path class="st14" d="M69.1,63.3h-3.7c-0.1,1.5,1,3.6-1.6,4.4c-2.1,0.7-2.5,1.7-2.3,2.2c0,0.1,0.1,0.2,0.2,0.2h6.9
		c0.4,0,0.7-0.3,0.7-0.7l0,0C69.2,67.3,69.1,63.3,69.1,63.3z"/>
	<path class="st15" d="M65.5,65c0.1,0.6,0.1,1.3-0.3,1.8h4.1c-0.1-1.8-0.1-3.5-0.1-3.5h-3.7C65.5,63.8,65.5,64.4,65.5,65z"/>
	<path class="st12" d="M64,67.4l0.3,0.6h0.1L64,67.4L64,67.4z"/>
	<path class="st12" d="M64.6,67.1c0.1,0.2,0.3,0.5,0.4,0.7h0.1C64.9,67.6,64.8,67.3,64.6,67.1L64.6,67.1L64.6,67.1L64.6,67.1z"/>
	<path class="st12" d="M65.1,66.7c0.1,0.2,0.2,0.3,0.4,0.5h0.1C65.4,67,65.3,66.8,65.1,66.7C65.2,66.6,65.1,66.7,65.1,66.7
		L65.1,66.7z"/>
	<path class="st15" d="M61.5,69.9c0,0.1,0.1,0.2,0.2,0.2h6.9c0.4,0,0.7-0.3,0.7-0.7l0,0l0,0h-7.8C61.4,69.5,61.4,69.7,61.5,69.9z"/>
	<path class="st16" d="M65,35.2c0,0-5.9,11.9-5.8,16.8c0.1,4.9,0.5,12.7,0.5,12.7"/>
	<path class="st17" d="M66,34.7c0,0,0.8,19.5,1.2,30.3"/>
	<circle class="st18" cx="65.4" cy="34.7" r="3.2"/>
	<path class="st12" d="M62.3,33.9c0.1,0,6.8,2.5,6.8,2.3s0.3-3.6-0.5-4.2"/>
	<path class="st19" d="M64.1,24.2c0.2,0.8,0.4,1.5,0.7,2.5"/>
	<path class="st12" d="M64.4,24.9c0,0-0.4,1-1,1.2L63.1,25"/>
	<path class="st7" d="M64.1,21.4L64.1,21.4c0.9,0.1,1.5,0.9,1.4,1.8l-0.1,0.5c-0.1,1.1-1.2,1.9-2.3,1.7l0,0l0,0
		c-0.6-0.1-1.1-0.7-1-1.3l0,0l0.2-1.4C62.4,21.9,63.2,21.3,64.1,21.4L64.1,21.4z"/>
	<path class="st12" d="M63.1,21.2c0,0-1.4,0.5-1.3,1.1c0.1,0.6,1.5-0.4,1.5-0.4s0.1,0.9,0.6,1.3c0,0,0.1-0.6,0.4-0.4
		c0.2,0.1,0.2,0.3,0.2,0.5c-0.1,0.2,0,0.4,0.1,0.5l0.8,0.8c-0.1-0.1,0.2-0.3,0.2-0.4c0.1-0.1,0.2-0.2,0.3-0.4c0-0.9-0.5-1.3-0.9-1.7
		"/>
	<path class="st7" d="M62,23.8c0,0.2,0.2,0.4,0.4,0.4v-0.5l-0.2-0.1C62.1,23.6,62,23.7,62,23.8L62,23.8z"/>
	<path class="st20" d="M69.3,28.2l0.2,4.5c0,0.3-0.2,0.6-0.5,0.6L61.4,34l0,0c-0.3,0-0.5-0.2-0.4-0.5l0,0v-0.3
		c0.1-1.4,0.1-2.8-0.2-4.3c-0.2-1.2,0-2.2,1.3-2.4l4.6-0.6c1.3-0.2,2.4,0.8,2.6,2C69.3,28.1,69.3,28.1,69.3,28.2z"/>
	<path class="st21" d="M67.4,27.5c0,0,2.3,0.9,4.3,4.5c0.1,0.3,0.1,0.6-0.1,0.8"/>
	<path class="st20" d="M63.5,26.4c0,0,2.3-1.1,3-0.9c0.8,0.2,0.2,1.7,0,2.1"/>
	<path class="st11" d="M70.3,37.4c0,0-5.6-10.9-3.1-11.8"/>
	<path class="st7" d="M59.6,30.2C59.6,30.2,59.7,30.1,59.6,30.2C59.7,30.1,59.6,30.1,59.6,30.2C59.6,30.1,59.6,30.1,59.6,30.2
		C59.6,30.1,59.6,30.2,59.6,30.2z"/>
	<path class="st7" d="M60.1,29.5C60.1,29.5,60.2,29.5,60.1,29.5C60.2,29.4,60.1,29.4,60.1,29.5C60.1,29.4,60.1,29.4,60.1,29.5
		L60.1,29.5z"/>
	<path class="st7" d="M59.8,29.8L59.8,29.8C59.8,29.8,59.8,29.7,59.8,29.8C59.8,29.7,59.7,29.8,59.8,29.8
		C59.7,29.8,59.8,29.8,59.8,29.8z"/>
	<path class="st21" d="M62.1,28c0,0-1.7,3.8-4.3,4.5c-1.2,0.3-4.4-4.9-4.4-4.9"/>
	<path class="st12" d="M60.9,29.7c0,0.8,0.1,1.5,0.1,2.3c0,0,0,0.1,0.1,0.1c0,0,0.1,0,0.1-0.1c0-0.8,0-1.5-0.1-2.3
		C61,29.7,60.9,29.7,60.9,29.7z"/>
	<path class="st12" d="M68.5,30.3c0.3,0.2,0.6,0.4,0.8,0.7h0.1v-0.1c-0.2-0.3-0.5-0.6-0.8-0.8C68.5,30.2,68.4,30.3,68.5,30.3
		L68.5,30.3z"/>
	<path class="st12" d="M66.2,31.1c0.3,0.6,0.8,1.1,1.3,1.4c0.1,0,0.2-0.1,0.1-0.1c-0.5-0.3-1-0.8-1.3-1.4
		C66.3,30.9,66.2,31,66.2,31.1L66.2,31.1z"/>
	<path class="st12" d="M62,32.9c0.2-0.2,0.3-0.5,0.4-0.7c0.1-0.3,0.2-0.6,0.3-0.9c0-0.1-0.1-0.1-0.1,0c0,0.3-0.2,0.6-0.3,0.8
		C62.2,32.3,62.1,32.6,62,32.9C61.8,32.9,61.9,33,62,32.9L62,32.9z"/>
	<path class="st15" d="M63.8,20.7C62.5,21,63,21.2,63,21.2l2.4,1.5c0.4-0.1,0.4-0.5,0.4-0.8c0-0.3,0.1-0.1,0.3-0.4
		C66.4,21.3,65.1,20.4,63.8,20.7z"/>
	<path class="st14" d="M63,20.8l-0.2,0.4c0,0.1,0,0.1,0,0.1l0,0c0.5,0.2,2.3,1.1,2.7,1.5c0,0,0.1,0,0.2,0l0,0l0.2-0.3v-0.1
		C65.6,22.2,64.7,21.4,63,20.8C63,20.8,63,20.8,63,20.8z"/>
	<path class="st21" d="M71.6,32.8c-1.3,1.5-2.8,2.8-4.5,3.8"/>
	<path class="st13" d="M66.3,35.2c0.6,1,1,2,1.7,3h0.1C67.4,37.2,66.9,36.1,66.3,35.2C66.3,35.1,66.3,35.1,66.3,35.2
		C66.3,35.1,66.3,35.1,66.3,35.2z"/>
	<path class="st15" d="M77.8,37.9c-1.2-2.3-3.1-4.4-3.1-4.4l-6,5.1c0,0,1.4,5,2.4,5.5C73.2,45.2,79.2,40.5,77.8,37.9z"/>
	<path class="st14" d="M68.7,38c1-0.7,4.1-2.7,5.5-4.5c0.1-0.1,0.3-0.2,0.5-0.1l0,0c0.6,0.7,1.8,2.6-0.7,4.7c-2.6,2.1-4.6,1-5.3,0.4
		C68.5,38.4,68.5,38.2,68.7,38C68.7,38.1,68.7,38,68.7,38z"/>
	<ellipse class="st14" cx="75.3" cy="40" rx="0.5" ry="0.7"/>
	<text transform="matrix(1 0 0 1 36.4321 63.129)" class="st0 st22 st23">₹</text>
</g>
</svg>
