<svg id="Layer_1" data-name="Layer 1" xmlns="http://www.w3.org/2000/svg" viewBox="0 0 32 32"><defs><style>.cls-1{fill:#5766cb;}.cls-2{fill:#3d4fc3;}.cls-3{fill:#e6f7fe;}.cls-4{fill:#d3effd;}.cls-5{fill:#e175a5;}.cls-6{fill:#de5791;}.cls-7{fill:#bd96e4;}.cls-8{fill:#a2f5c3;}.cls-9{fill:#ffd064;}.cls-10{fill:#eab14d;}</style></defs><title>ASSETS</title><path class="cls-1" d="M7.48,26l3.4-1.86,1.69,5.41a.59.59,0,0,1-.28.71l-1.37.75a.6.6,0,0,1-.82-.24Z"/><path class="cls-2" d="M10.88,24.18,7.48,26l.73,1.33,3.13-1.72Z"/><path class="cls-3" d="M8,16.09l-4.74,2.6a1.21,1.21,0,0,0-.48,1.64l2.91,5.3a1.2,1.2,0,0,0,1.64.48l4.74-2.6a2.39,2.39,0,0,1,1.2-.29l9.11.16L13.69,7.47,8.93,15.24a2.45,2.45,0,0,1-.9.85Z"/><path class="cls-4" d="M11.49,23.85l.61-.34a2.39,2.39,0,0,1,1.2-.29l9.11.16-7.24-13.2c1.31,3.24.68,8.66-3.68,13.67Z"/><path class="cls-5" d="M5.72,25.63l-1.06.58A1.2,1.2,0,0,1,3,25.73L1.27,22.55a1.21,1.21,0,0,1,.48-1.64l1.06-.58Z"/><path class="cls-6" d="M3.16,24.46c-.15.24-.3.47-.46.7l.32.57a1.2,1.2,0,0,0,1.64.48l1.06-.58-1.66-3a11.22,11.22,0,0,1-.9,1.85Z"/><path class="cls-1" d="M18.14,10.55l1.95-.07a1.21,1.21,0,0,1,1.11.63l2.19,4a1.21,1.21,0,0,1-.07,1.27L22.2,18Z"/><path class="cls-5" d="M13.54,6.18l1.27-.7a.49.49,0,0,1,.66.2l9.41,17.18a.48.48,0,0,1-.2.65l-1.27.7a.48.48,0,0,1-.65-.19L13.35,6.84a.48.48,0,0,1,.19-.66Z"/><path class="cls-6" d="M19.86,17.72c-.09.17-.18.34-.28.51L22.76,24a.48.48,0,0,0,.65.19l1.27-.7a.48.48,0,0,0,.2-.65l-4-7.31a20.14,20.14,0,0,1-1,2.17Z"/><path class="cls-7" d="M19.67,3.55l-1.13-.36a.36.36,0,0,1-.18-.55l.74-1a.35.35,0,0,1,.4-.13l1.13.36a.36.36,0,0,1,.18.55l-.74,1A.35.35,0,0,1,19.67,3.55Z"/><path class="cls-8" d="M30.68,3.37l-.84.83a.36.36,0,0,1-.57-.09L28.68,3a.35.35,0,0,1,.07-.42l.83-.84a.36.36,0,0,1,.57.09L30.75,3A.37.37,0,0,1,30.68,3.37Z"/><path class="cls-8" d="M29.48,21.87l-.84.84a.36.36,0,0,1-.57-.09l-.59-1.13a.35.35,0,0,1,.06-.42l.84-.84a.36.36,0,0,1,.57.09l.59,1.13A.36.36,0,0,1,29.48,21.87Z"/><path class="cls-5" d="M26.39,9.46l-.84.83a.36.36,0,0,1-.57-.08l-.59-1.13a.36.36,0,0,1,.06-.42l.84-.84a.36.36,0,0,1,.57.09L26.45,9A.36.36,0,0,1,26.39,9.46Z"/><path class="cls-9" d="M28.83,16.48l-.76-.9A.35.35,0,0,1,28.2,15l1.17-.5a.36.36,0,0,1,.41.1l.77.9a.36.36,0,0,1-.13.56l-1.17.5A.37.37,0,0,1,28.83,16.48Z"/><path class="cls-1" d="M5,20.79a.43.43,0,0,1-.38-.23A.44.44,0,0,1,4.82,20l1.06-.58a.44.44,0,0,1,.59.17.43.43,0,0,1-.17.59l-1.06.58A.42.42,0,0,1,5,20.79Z"/><path class="cls-1" d="M6.89,24.18A.44.44,0,0,1,6.51,24a.43.43,0,0,1,.17-.59l1.06-.59a.44.44,0,0,1,.59.18.43.43,0,0,1-.17.59l-1.06.58A.54.54,0,0,1,6.89,24.18Z"/><path class="cls-1" d="M6,22.48a.44.44,0,0,1-.38-.22.43.43,0,0,1,.17-.59l1.06-.58a.43.43,0,0,1,.42.76l-1.06.58A.41.41,0,0,1,6,22.48Z"/><circle class="cls-10" cx="24.94" cy="3.64" r="0.48"/><circle class="cls-10" cx="29.93" cy="9.73" r="0.48"/><circle class="cls-10" cx="20.35" cy="7.21" r="0.48"/><circle class="cls-10" cx="25.9" cy="17.01" r="0.48"/></svg>