<svg id="Layer_1" data-name="Layer 1" xmlns="http://www.w3.org/2000/svg" viewBox="0 0 38 38"><defs><style>.cls-1{fill:#19cffc;}.cls-2{fill:#2864f0;}.cls-3{fill:#3389ff;}</style></defs><title>ASSETS</title><path class="cls-1" d="M9.92,8.59H4.72a1,1,0,0,1,0-2h5.2a1,1,0,1,1,0,2.05Z"/><path class="cls-1" d="M9.92,16.8H4.72a1,1,0,0,1,0-2.05h5.2a1,1,0,1,1,0,2.05Z"/><path class="cls-1" d="M7.87,12.7H2.67a1,1,0,0,1,0-2h5.2a1,1,0,0,1,0,2Z"/><path class="cls-2" d="M20.8,5.35a2.06,2.06,0,0,0-2.59.26l-5.64,5.64a2.05,2.05,0,0,0,2.9,2.9L19.92,9.7,23.11,12l4.35-2Z"/><path class="cls-2" d="M16.67,18.42,3.34,31.75a2.05,2.05,0,1,0,2.9,2.9L18.12,22.77Z"/><path class="cls-3" d="M34.6,15.77H28.38v-4.1a2.05,2.05,0,0,0-3.5-1.45l-8.21,8.2a2.05,2.05,0,0,0,0,2.9L21.38,26l-5.73,5.72a2.05,2.05,0,1,0,2.9,2.9l7.18-7.17a2.05,2.05,0,0,0,0-2.9L21,19.87l3.26-3.25v1.2a2,2,0,0,0,2,2.05H34.6a2.05,2.05,0,0,0,0-4.1Z"/><circle class="cls-3" cx="31.45" cy="6.54" r="3.08"/></svg>