<svg id="Layer_1" data-name="Layer 1" xmlns="http://www.w3.org/2000/svg" viewBox="0 0 38 38"><defs><style>.cls-1{fill:#ffdb0c;}.cls-2{fill:#fbbf00;}.cls-3{fill:#f1f1f2;}.cls-4{fill:#e6e6e6;}</style></defs><title>ASSETS</title><path class="cls-1" d="M19,37.45h0A25.16,25.16,0,0,0,35.38,13.88V7.52a6.1,6.1,0,0,1-6.1-6.1H8.8a6.11,6.11,0,0,1-6.11,6.1v6.36A25.17,25.17,0,0,0,19,37.45Z"/><path class="cls-2" d="M19,37.45h0A25.16,25.16,0,0,0,35.38,13.88V7.52a6.1,6.1,0,0,1-6.1-6.1H19v36Z"/><polygon class="cls-3" points="16.76 25.79 11.34 20.37 14.33 17.38 16.76 19.82 23.75 12.83 26.73 15.81 16.76 25.79"/><polygon class="cls-4" points="19.04 23.51 19.04 17.54 23.75 12.83 26.73 15.81 19.04 23.51"/></svg>