<svg id="Layer_1" data-name="Layer 1" xmlns="http://www.w3.org/2000/svg" viewBox="0 0 38 38"><defs><style>.cls-1{fill:#f44336;}.cls-2{fill:#fafafa;}</style></defs><title>ASSETS</title><path class="cls-1" d="M35,19.29l1.54-4A1.1,1.1,0,0,0,36.17,14L32.82,11.3,32.15,7a1.12,1.12,0,0,0-.92-.91L27,5.45,24.26,2.11A1.1,1.1,0,0,0,23,1.77L19,3.32,15,1.78a1.08,1.08,0,0,0-1.25.33L11,5.46l-4.26.67a1.1,1.1,0,0,0-.91.92L5.16,11.3,1.81,14a1.08,1.08,0,0,0-.33,1.24l1.54,4-1.54,4a1.1,1.1,0,0,0,.33,1.25l3.35,2.71.68,4.25a1.09,1.09,0,0,0,.91.92l4.26.68,2.71,3.34A1.1,1.1,0,0,0,15,36.8l4-1.55,4,1.55a1,1,0,0,0,.39.07,1.07,1.07,0,0,0,.85-.41L27,33.12l4.26-.68a1.11,1.11,0,0,0,.92-.92l.67-4.25,3.35-2.71a1.1,1.1,0,0,0,.33-1.25Z"/><path class="cls-2" d="M15.69,17.09a3.3,3.3,0,1,1,3.3-3.3A3.3,3.3,0,0,1,15.69,17.09Zm0-4.4a1.1,1.1,0,1,0,0,2.2,1.1,1.1,0,0,0,0-2.2Z"/><path class="cls-2" d="M22.29,28.08a3.3,3.3,0,1,1,3.29-3.3A3.3,3.3,0,0,1,22.29,28.08Zm0-4.4a1.1,1.1,0,1,0,1.1,1.1A1.1,1.1,0,0,0,22.29,23.68Z"/><path class="cls-2" d="M13.5,28.08a1.07,1.07,0,0,1-.64-.21,1.09,1.09,0,0,1-.26-1.53L23.59,11a1.11,1.11,0,0,1,1.54-.25,1.1,1.1,0,0,1,.25,1.53l-11,15.39A1.1,1.1,0,0,1,13.5,28.08Z"/></svg>